<svg width="18" height="14" viewBox="0 0 18 14" fill="none" xmlns="http://www.w3.org/2000/svg">
<path d="M17.3578 1.02219C17.0338 0.639674 16.4137 0.181934 15.3 0.169472C13.9263 0.154102 12.1756 0.943468 10.6162 2.28119C10.3832 2.4784 10.1701 2.68068 9.96769 2.88514L9.98383 1.49282C9.98638 1.2728 9.89158 1.0607 9.7203 0.903184C9.54901 0.745669 9.31527 0.655639 9.07048 0.6529C8.8257 0.650161 8.58992 0.734938 8.41503 0.888579C8.24014 1.04222 8.14045 1.25214 8.1379 1.47216L8.12176 2.86449C7.92419 2.65485 7.71277 2.44507 7.48738 2.24618C5.95943 0.873914 4.23133 0.0456229 2.85381 0.0302095C1.7401 0.017748 1.10955 0.462877 0.776751 0.836666C-0.252904 2.00055 0.108494 4.00347 0.645383 5.99729C1.06949 7.5674 1.988 8.29398 2.83644 8.62775C2.58071 9.13069 2.46873 9.68328 2.51063 10.2355C2.55254 10.7877 2.74701 11.322 3.07643 11.7902C3.40586 12.2583 3.85983 12.6454 4.39723 12.9164C4.93463 13.1874 5.53849 13.3338 6.15412 13.3423C6.67817 13.3485 7.19743 13.254 7.67718 13.0653C8.15693 12.8765 8.58612 12.5978 8.93606 12.2478C9.42608 12.7587 10.0773 13.1238 10.803 13.2944C11.5287 13.465 12.2945 13.4331 12.9986 13.2029C13.7028 12.9727 14.3118 12.5551 14.7447 12.0057C15.1776 11.4563 15.414 10.8011 15.4222 10.1272C15.4281 9.65938 15.325 9.19543 15.1196 8.76519C15.9755 8.45187 16.9106 7.74811 17.371 6.18444C17.9525 4.20313 18.3602 2.20881 17.3578 1.02219ZM6.17335 11.6831C5.68378 11.6776 5.21629 11.4976 4.87372 11.1825C4.53115 10.8675 4.34156 10.4433 4.34666 10.0033C4.35324 9.59434 4.52514 9.20184 4.83029 8.89901C5.13544 8.59619 5.55298 8.40375 6.00498 8.3576C6.24862 8.33612 6.47259 8.22851 6.62762 8.05843C6.78265 7.88836 6.85605 7.66976 6.83166 7.45072C6.80726 7.23168 6.68709 7.03015 6.49756 6.89045C6.30804 6.75076 6.06469 6.68435 5.82105 6.70583C5.22771 6.75817 4.65786 6.94001 4.16105 7.23554C3.53136 7.20845 2.78055 6.87992 2.43912 5.60943C1.89258 3.58577 1.81946 2.32865 2.22167 1.87336C2.26765 1.82133 2.38924 1.6844 2.83457 1.68939C3.69677 1.69904 5.04335 2.39376 6.18455 3.41876C7.34554 4.46196 8.08955 5.64292 8.08046 6.42688L8.03852 10.0446C8.03341 10.4846 7.83404 10.9045 7.48425 11.2118C7.13447 11.519 6.66292 11.6886 6.17335 11.6831ZM15.5844 5.75582C15.2129 7.01834 14.4547 7.32998 13.8253 7.34368C13.3352 7.03709 12.7694 6.84276 12.1772 6.77764C12.0568 6.7643 11.9348 6.77241 11.818 6.80148C11.7012 6.83055 11.592 6.88003 11.4966 6.94708C11.4012 7.01413 11.3214 7.09745 11.2619 7.19227C11.2023 7.2871 11.1642 7.39157 11.1496 7.49973C11.135 7.60789 11.1443 7.71761 11.1768 7.82264C11.2094 7.92767 11.2647 8.02594 11.3395 8.11185C11.4143 8.19775 11.5071 8.26961 11.6127 8.32332C11.7183 8.37703 11.8347 8.41153 11.955 8.42486C12.406 8.48079 12.8192 8.6823 13.1176 8.99176C13.4159 9.30122 13.579 9.69748 13.5763 10.1065C13.5712 10.5466 13.3718 10.9664 13.022 11.2737C12.6723 11.581 12.2007 11.7505 11.7111 11.7451C11.2216 11.7396 10.7541 11.5595 10.4115 11.2445C10.0689 10.9295 9.87934 10.5053 9.88444 10.0652L9.92639 6.44754C9.93547 5.66358 10.7067 4.49957 11.8915 3.48262C13.0562 2.48342 14.4185 1.819 15.2807 1.82865C15.7261 1.83363 15.8445 1.97324 15.8892 2.02629C16.28 2.48976 16.1785 3.74492 15.5852 5.75583L15.5844 5.75582Z" fill="url(#paint0_linear_33_761)"/>
<defs>
<linearGradient id="paint0_linear_33_761" x1="9.07696" y1="0.0998417" x2="8.92844" y2="13.3733" gradientUnits="userSpaceOnUse">
<stop offset="1" stop-color="#F9433F"/>
</linearGradient>
</defs>
</svg>
