<svg width="51" height="51" viewBox="0 0 51 51" fill="none" xmlns="http://www.w3.org/2000/svg">
<path d="M25.4504 0.514648C18.6664 0.514648 17.821 0.547406 15.166 0.659719C12.5002 0.79075 10.6969 1.20412 9.10585 1.82184C7.44067 2.45065 5.93259 3.43491 4.68667 4.70609C3.41353 5.95041 2.42897 7.45895 1.80242 9.12527C1.1847 10.7164 0.771329 12.5196 0.640298 15.1855C0.520186 17.842 0.495228 18.6859 0.495228 25.4699C0.495228 32.2538 0.527986 33.0993 0.640298 35.7542C0.771329 38.4123 1.1847 40.2233 1.80242 41.8144C2.43122 43.4796 3.41549 44.9877 4.68667 46.2336C5.93099 47.5068 7.43952 48.4913 9.10585 49.1179C10.6969 49.7278 12.508 50.149 15.166 50.28C17.8225 50.4001 18.6664 50.4251 25.4504 50.4251C32.2344 50.4251 33.0799 50.3923 35.7348 50.28C38.3929 50.149 40.2039 49.7262 41.795 49.1179C43.4602 48.4891 44.9683 47.5048 46.2142 46.2336C47.4913 44.9926 48.4765 43.4831 49.0984 41.8144C49.7084 40.2233 50.1295 38.4123 50.2606 35.7542C50.3807 33.0977 50.4056 32.2538 50.4056 25.4699C50.4056 18.6859 50.3729 17.8404 50.2606 15.1855C50.1295 12.5274 49.7068 10.707 49.0984 9.12527C48.4696 7.46009 47.4854 5.95201 46.2142 4.70609C44.9732 3.42896 43.4637 2.44377 41.795 1.82184C40.2039 1.20412 38.3929 0.79075 35.7348 0.659719C33.0783 0.539607 32.2344 0.514648 25.4504 0.514648ZM25.4504 5.00715C32.1127 5.00715 32.9083 5.0399 35.5414 5.15222C37.9701 5.26609 39.2929 5.67166 40.1712 6.01484C41.2566 6.41613 42.2392 7.05394 43.0476 7.88203C43.876 8.68561 44.5117 9.66635 44.907 10.7507C45.2502 11.6289 45.6558 12.9517 45.7696 15.3805C45.8819 18.0136 45.9147 18.8107 45.9147 25.4714C45.9147 32.1322 45.8819 32.9293 45.7603 35.5624C45.6292 37.9911 45.2237 39.3139 44.882 40.1921C44.4094 41.3636 43.8822 42.1826 43.0117 43.0686C42.2009 43.8919 41.2189 44.5267 40.1353 44.928C39.268 45.2712 37.9265 45.6767 35.4884 45.7906C32.8412 45.9029 32.0613 45.9357 25.3818 45.9357C18.7023 45.9357 17.9239 45.9029 15.2737 45.7812C12.8449 45.6502 11.505 45.2446 10.6267 44.903C9.44123 44.4304 8.62852 43.9031 7.7581 43.0327C6.87988 42.1545 6.32144 41.3184 5.89091 40.1563C5.54149 39.289 5.14216 37.9475 5.01268 35.5093C4.92377 32.8934 4.88165 32.0823 4.88165 25.434C4.88165 18.7888 4.92377 17.9761 5.01268 15.3274C5.14216 12.8893 5.54149 11.5509 5.89091 10.6805C6.32144 9.49341 6.88144 8.68226 7.7581 7.80404C8.62696 6.93518 9.44123 6.37362 10.6267 5.93372C11.505 5.59211 12.8122 5.18653 15.2503 5.06486C17.8974 4.96971 18.6774 4.93539 25.3475 4.93539L25.4504 5.00715ZM25.4504 12.6616C23.7678 12.6609 22.1016 12.9919 20.547 13.6355C18.9924 14.2791 17.5798 15.2228 16.39 16.4126C15.2002 17.6023 14.2566 19.0149 13.613 20.5695C12.9694 22.1242 12.6384 23.7904 12.639 25.473C12.6384 27.1556 12.9694 28.8218 13.613 30.3764C14.2566 31.931 15.2002 33.3436 16.39 34.5334C17.5798 35.7232 18.9924 36.6668 20.547 37.3104C22.1016 37.954 23.7678 38.285 25.4504 38.2844C27.133 38.285 28.7992 37.954 30.3539 37.3104C31.9085 36.6668 33.3211 35.7232 34.5108 34.5334C35.7006 33.3436 36.6443 31.931 37.2879 30.3764C37.9315 28.8218 38.2625 27.1556 38.2618 25.473C38.2625 23.7904 37.9315 22.1242 37.2879 20.5695C36.6443 19.0149 35.7006 17.6023 34.5108 16.4126C33.3211 15.2228 31.9085 14.2791 30.3539 13.6355C28.7992 12.9919 27.133 12.6609 25.4504 12.6616ZM25.4504 33.7919C20.8519 33.7919 17.1315 30.0715 17.1315 25.473C17.1315 20.8744 20.8519 17.1541 25.4504 17.1541C30.049 17.1541 33.7694 20.8744 33.7694 25.473C33.7694 30.0715 30.049 33.7919 25.4504 33.7919ZM41.7732 12.1499C41.7724 12.9449 41.4559 13.7071 40.8935 14.269C40.331 14.8309 39.5685 15.1465 38.7735 15.1465C38.3804 15.1465 37.9911 15.069 37.628 14.9186C37.2648 14.7682 36.9348 14.5477 36.6568 14.2697C36.3788 13.9917 36.1584 13.6617 36.0079 13.2986C35.8575 12.9354 35.7801 12.5461 35.7801 12.153C35.7801 11.7599 35.8575 11.3707 36.0079 11.0075C36.1584 10.6443 36.3788 10.3143 36.6568 10.0363C36.9348 9.75838 37.2648 9.53788 37.628 9.38745C37.9911 9.23702 38.3804 9.15959 38.7735 9.15959C40.4223 9.15959 41.7732 10.5011 41.7732 12.1499Z" fill="black"/>
</svg>
